{"title":"8MM.2.WS.DVDRip.[Dual-Audio].H264.OGG-Knight","uid":6101335,"size":1056676816,"categoryP":"video","categoryS":"movies","magnet":"?xt=urn:btih:1b3b58cc6b0dadf5b49fedb116bbf5573e885372&amp;dn=8MM.2.WS.DVDRip.%5BDual-Audio%5D.H264.OGG-Knight&amp;tr=udp%3A%2F%2Ftracker.openbittorrent.com%3A80&amp;tr=udp%3A%2F%2Fopen.demonii.com%3A1337&amp;tr=udp%3A%2F%2Ftracker.coppersurfer.tk%3A6969&amp;tr=udp%3A%2F%2Fexodus.desync.com%3A6969","seeders":0,"leechers":1,"uploader":"islife","files":4,"time":1294983596,"description":"languages: PortuguÃƒÂªs-br/InlgÃƒÂªs \nLegenda/subtitle: PortuguÃƒÂªs\n\n\nGeneral\nComplete name                    : 8MM.2.WS.DVDRip.[Dual-Audio].H264.OGG-Knight\nFormat                           : OGG\nFile size                        : 1 003 MiB\nDuration                         : 1h 47mn\nOverall bit rate                 : 1 311 Kbps\n\nVideo\nID                               : 0 (0x0)\nFormat                           : AVC\nFormat/Info                      : Advanced Video Codec\nCodec ID                         : H264\nDuration                         : 1h 47mn\nBit rate                         : 1 056 Kbps\nWidth                            : 688 pixels\nHeight                           : 368 pixels\nDisplay aspect ratio             : 1.870\nFrame rate                       : 23.976 fps\nColor space                      : YUV\nChroma subsampling               : 4:2:0\nBits/(Pixel*Frame)               : 0.174\nStream size                      : 809 MiB (81%)\n\nAudio #1\nID                               : 1 (0x1)\nFormat                           : Vorbis\nFormat settings, Floor           : 1\nDuration                         : 1h 47mn\nBit rate                         : 96.0 Kbps\nChannel(s)                       : 2 channels\nSampling rate                    : 48.0 KHz\nStream size                      : 73.5 MiB (7%)\nWriting library                  : libVorbis 1.0 (UTC 2002-07-17)\n\nAudio #2\nID                               : 2 (0x2)\nFormat                           : Vorbis\nFormat settings, Floor           : 1\nDuration                         : 1h 47mn\nBit rate                         : 96.0 Kbps\nChannel(s)                       : 2 channels\nSampling rate                    : 48.0 KHz\nStream size                      : 73.5 MiB (7%)\nWriting library                  : libVorbis 1.0 (UTC 2002-07-17)\n\n\n\n","torrent":{"xt":"urn:btih:1b3b58cc6b0dadf5b49fedb116bbf5573e885372","amp;dn":"8MM.2.WS.DVDRip.%5BDual-Audio%5D.H264.OGG-Knight","amp;tr":["udp%3A%2F%2Ftracker.openbittorrent.com%3A80","udp%3A%2F%2Fopen.demonii.com%3A1337","udp%3A%2F%2Ftracker.coppersurfer.tk%3A6969","udp%3A%2F%2Fexodus.desync.com%3A6969"],"infoHash":"1b3b58cc6b0dadf5b49fedb116bbf5573e885372","infoHashBuffer":{"type":"Buffer","data":[27,59,88,204,107,13,173,245,180,159,237,177,22,187,245,87,62,136,83,114]},"announce":[],"urlList":[]}}